<?xml version="1.0" encoding="UTF-8" standalone="no"?>
<!-- Generator: Adobe Illustrator 17.0.0, SVG Export Plug-In . SVG Version: 6.00 Build 0)  -->

<svg
   xmlns:dc="http://purl.org/dc/elements/1.1/"
   xmlns:cc="http://creativecommons.org/ns#"
   xmlns:rdf="http://www.w3.org/1999/02/22-rdf-syntax-ns#"
   xmlns:svg="http://www.w3.org/2000/svg"
   xmlns="http://www.w3.org/2000/svg"
   xmlns:sodipodi="http://sodipodi.sourceforge.net/DTD/sodipodi-0.dtd"
   xmlns:inkscape="http://www.inkscape.org/namespaces/inkscape"
   version="1.1"
   id="Warstwa_1"
   x="0px"
   y="0px"
   width="707.1px"
   height="200px"
   viewBox="0 0 707.1 200"
   enable-background="new 0 0 707.1 200"
   xml:space="preserve"
   inkscape:version="0.91 r13725"
   sodipodi:docname="logo.svg"><metadata
     id="metadata3446"><rdf:RDF><cc:Work
         rdf:about=""><dc:format>image/svg+xml</dc:format><dc:type
           rdf:resource="http://purl.org/dc/dcmitype/StillImage" /></cc:Work></rdf:RDF></metadata><defs
     id="defs3444" /><sodipodi:namedview
     pagecolor="#ffffff"
     bordercolor="#666666"
     borderopacity="1"
     objecttolerance="10"
     gridtolerance="10"
     guidetolerance="10"
     inkscape:pageopacity="0"
     inkscape:pageshadow="2"
     inkscape:window-width="1920"
     inkscape:window-height="974"
     id="namedview3442"
     showgrid="true"
     showguides="true"
     inkscape:guide-bbox="true"
     inkscape:zoom="2.5074248"
     inkscape:cx="338.40793"
     inkscape:cy="90.771079"
     inkscape:window-x="0"
     inkscape:window-y="27"
     inkscape:window-maximized="1"
     inkscape:current-layer="Warstwa_1"><inkscape:grid
       type="xygrid"
       id="grid3715" /><sodipodi:guide
       position="435.00002,200"
       orientation="0,1"
       id="guide3762" /></sodipodi:namedview><polygon
     points="173.2,50 173.2,150 86.6,200 0,150 0,50 86.6,0 "
     id="polygon3412"
     transform="matrix(0.95566145,0,0,0.94345707,507.19825,-2.1226104)"
     style="fill:#61dafb" /><polygon
     stroke-miterlimit="10"
     enable-background="new    "
     points="86.6,200 86.6,100 0,150 "
     id="polygon3418"
     transform="matrix(0.85664835,0,0,0.84574726,517.96627,9.8418562)"
     style="opacity:0.03999999;stroke:#ffffff;stroke-miterlimit:10" /><polygon
     stroke-miterlimit="10"
     enable-background="new    "
     points="173.2,150 173.2,50 86.6,100 "
     id="polygon3420"
     transform="matrix(0.85664835,0,0,0.84574726,517.96627,9.8418562)"
     style="opacity:0.07999998;stroke:#ffffff;stroke-miterlimit:10" /><polygon
     points="0,50 0,150 86.6,100 "
     id="polygon3422"
     transform="matrix(0.85664835,0,0,0.84574726,517.96627,9.8418562)"
     style="fill-opacity:0" /><polygon
     stroke-miterlimit="10"
     enable-background="new    "
     points="86.6,100 86.6,200 173.2,150 "
     id="polygon3424"
     transform="matrix(0.85664835,0,0,0.84574726,517.96627,9.8418562)"
     style="opacity:0.07999998;stroke:#ffffff;stroke-miterlimit:10" /><polygon
     stroke-miterlimit="10"
     enable-background="new    "
     points="86.6,0 86.6,100 173.2,50 "
     id="polygon3426"
     transform="matrix(0.85664835,0,0,0.84574726,517.96627,9.8418562)"
     style="opacity:0.07999998;stroke:#ffffff;stroke-miterlimit:10" /><g
     id="g3428"><path
       inkscape:connector-curvature="0"
       d="m 6.2512676,57.265147 0,12.349577 13.3496004,0 13.34961,0 0,37.048736 0,37.04873 13.03175,0 13.03176,0 0,-37.04873 0,-37.048736 13.03175,0 13.03176,0 0,-12.349577 0,-12.349577 -39.41312,0 -39.4131104,0 0,12.349577 z"
       id="path3637" /><path
       inkscape:connector-curvature="0"
       d="m 90.948859,95.510327 0,50.195943 33.082781,0 33.08279,0 0,-11.40818 0,-11.40817 -19.90928,0 c -10.96799,0 -20.32655,-0.22815 -20.86301,-0.45632 -0.77492,-0.38027 -0.95374,-1.97742 -0.95374,-9.88707 l 0,-9.43076 18.77671,0 18.77671,0 0,-10.267345 0,-10.267357 -18.77671,0 -18.77671,0 0,-7.985718 0,-7.985717 20.26692,0 20.26693,0 0,-10.647625 0,-10.647623 -32.48669,0 -32.486701,0 0,50.195942 z"
       id="path3609" /><path
       inkscape:connector-curvature="0"
       d="m 194.05329,43.119172 c -12.58653,2.434575 -20.54668,8.403208 -24.69683,18.769787 -1.49678,3.612594 -1.76891,5.654497 -1.83695,10.759248 0,5.575963 0.27213,6.911054 2.24517,11.544599 4.35426,10.28805 13.40296,16.178134 33.26928,21.754104 8.09621,2.27751 12.17833,4.55502 13.81118,7.53934 2.04106,3.76964 1.76892,7.61785 -0.68035,10.9163 -2.65338,3.45553 -5.783,4.63357 -11.08977,4.2409 -7.68799,-0.62829 -11.63404,-4.31942 -13.81117,-13.11531 l -1.08857,-4.16234 -5.23871,0.47121 c -2.8575,0.23563 -8.64051,0.7068 -12.8587,0.94245 -4.21819,0.31411 -7.75603,0.78532 -7.8921,1.02092 -0.54428,1.17802 1.76892,11.07338 3.67391,15.47133 4.35427,10.28804 11.70208,16.41376 22.65579,18.7698 6.9396,1.49213 22.45165,1.49213 28.71091,0 10.81762,-2.59166 19.32204,-10.05245 23.6763,-20.57608 1.97303,-4.86916 2.17713,-5.96864 2.17713,-13.19383 0,-6.83252 -0.27213,-8.40322 -1.76892,-12.17289 -4.6264,-11.387527 -11.63404,-16.17814 -33.06517,-22.460916 -6.46336,-1.884832 -12.72263,-4.005265 -13.81119,-4.633542 -4.28623,-2.513111 -4.21819,-7.853471 0,-11.230462 3.0616,-2.356039 9.25281,-2.434574 13.40297,-0.07853 2.44928,1.335089 3.2657,2.434573 5.03461,6.675448 1.56482,3.848197 2.38124,5.026218 3.19767,4.71208 0.61232,-0.157071 5.91908,-0.549744 11.70207,-0.863883 5.78301,-0.235603 11.02174,-0.628278 11.63405,-0.86388 2.65339,-0.863882 -1.97303,-15.078656 -6.80352,-20.654619 -3.19768,-3.691131 -7.68801,-6.518378 -13.40298,-8.324675 -4.55836,-1.492159 -21.70327,-2.277507 -27.14611,-1.256555 z"
       id="path3631" /><path
       inkscape:connector-curvature="0"
       d="m 247.73408,58.461594 0,13.147208 13.3496,0 13.34961,0 0,39.441638 0,39.44162 13.03175,0 13.03176,0 0,-39.44162 0,-39.441638 13.03175,0 13.03176,0 0,-13.147208 0,-13.147208 -39.41312,0 -39.41311,0 0,13.147208 z"
       id="path3637-3" /><path
       inkscape:connector-curvature="0"
       d="m 330.20858,99.291213 0,51.791207 33.08278,0 33.08279,0 0,-11.77075 0,-11.77073 -19.90928,0 c -10.96799,0 -20.32655,-0.2354 -20.86301,-0.47082 -0.77492,-0.39235 -0.95374,-2.04026 -0.95374,-10.20129 l 0,-9.73047 18.77671,0 18.77671,0 0,-10.59365 0,-10.593661 -18.77671,0 -18.77671,0 0,-8.23951 0,-8.239508 20.26692,0 20.26693,0 0,-10.986014 0,-10.986012 -32.48669,0 -32.4867,0 0,51.791208 z"
       id="path3609-6" /><path
       inkscape:connector-curvature="0"
       d="m 404.58165,99.512347 0,51.392383 13.35198,0 13.35198,0 0.13027,-20.86842 0.19539,-20.79056 2.86579,0.2336 c 3.45198,0.2336 6.05724,1.79095 7.75066,4.59417 0.71645,1.24588 4.75461,9.81127 8.98817,19.15534 4.16842,9.42194 7.94605,17.20867 8.33684,17.3644 0.45592,0.15574 7.22961,0.2336 15.17567,0.15574 l 14.45921,-0.23361 -7.16448,-16.42999 c -7.75065,-17.8316 -11.52829,-23.90524 -16.67369,-27.0978 l -2.93092,-1.71308 2.86579,-1.01227 c 6.25263,-2.18029 12.30987,-8.409661 15.04541,-15.495581 2.08421,-5.294973 2.08421,-19.155344 0.0652,-24.37245 -1.95394,-4.983504 -5.73157,-9.811274 -9.63947,-12.147291 -5.86185,-3.581894 -10.81185,-4.049097 -39.60002,-4.126965 l -26.5737,0 0,51.392384 z m 46.17832,-29.122349 c 4.81973,2.25815 6.12236,10.434211 2.40986,15.028379 -2.2796,2.803221 -6.64342,3.97123 -15.11053,3.97123 l -6.77369,0 0,-10.122743 0,-10.122742 8.46711,0 c 6.1875,0 9.11843,0.311469 11.00725,1.245876 z"
       id="path3635" /></g><path
     inkscape:connector-curvature="0"
     d="m 518.68812,56.069019 c 0,0.295667 4.69411,8.692846 10.43135,18.62752 5.73725,9.934686 10.43136,18.213588 10.43136,18.390991 0,0.177402 -5.26784,9.34333 -11.73528,20.40159 l -11.68311,20.1059 11.94389,0 11.89174,0 6.51961,-11.94527 c 3.59881,-6.62313 6.72822,-12.00441 6.989,-12.00441 0.20863,0 3.33803,5.38128 6.88468,12.00441 l 6.46744,11.94527 11.9439,0 c 9.44038,0 11.89174,-0.1774 11.5788,-0.76876 -0.26079,-0.3548 -5.4243,-9.34333 -11.52664,-19.86936 -6.1545,-10.58518 -11.05723,-19.455427 -10.95292,-19.810232 0.15647,-0.354817 4.74626,-8.574581 10.27488,-18.331853 5.47646,-9.698146 10.11841,-18.036175 10.27488,-18.450129 0.20863,-0.70961 -1.66902,-0.827886 -11.2137,-0.827886 l -11.52665,0 -5.84155,11.886135 c -3.18156,6.504856 -5.99803,11.649596 -6.25881,11.353929 -0.26078,-0.295679 -2.97293,-5.558694 -6.10234,-11.708733 L 541.7414,55.832478 530.21477,55.655076 c -7.09333,-0.05916 -11.52665,0.05916 -11.52665,0.413943 z"
     id="path3649"
     style="fill:#ffffff" /><path
     inkscape:connector-curvature="0"
     d="m 597.03882,95.723604 0,40.026146 12.94676,0 12.94678,0 0,-14.85818 0,-14.85819 10.04914,0 c 11.34382,0 15.90602,-0.78841 21.51628,-3.76005 8.87777,-4.669707 13.37831,-14.858184 11.65208,-26.320215 -1.29468,-8.672332 -5.11705,-14.31238 -11.83704,-17.344661 -5.73356,-2.668412 -8.44621,-2.910993 -33.53828,-2.910993 l -23.73572,0 0,40.026143 z m 38.47037,-22.98471 c 3.02091,0.84904 4.99376,2.789702 5.98017,5.882629 0.61651,2.122599 0.55487,2.910994 -0.30825,5.215533 -1.66458,4.24519 -4.13064,5.45811 -11.89869,5.700691 l -6.35006,0.242582 0,-8.85427 0,-8.854268 5.11703,0 c 2.77431,0 6.10348,0.30323 7.4598,0.667103 z"
     id="path3633"
     style="fill:#ffffff" /></svg>