<?xml version="1.0" encoding="UTF-8" standalone="no"?>
<!-- Generator: Adobe Illustrator 17.0.0, SVG Export Plug-In . SVG Version: 6.00 Build 0)  -->

<svg
   xmlns:dc="http://purl.org/dc/elements/1.1/"
   xmlns:cc="http://creativecommons.org/ns#"
   xmlns:rdf="http://www.w3.org/1999/02/22-rdf-syntax-ns#"
   xmlns:svg="http://www.w3.org/2000/svg"
   xmlns="http://www.w3.org/2000/svg"
   xmlns:sodipodi="http://sodipodi.sourceforge.net/DTD/sodipodi-0.dtd"
   xmlns:inkscape="http://www.inkscape.org/namespaces/inkscape"
   version="1.1"
   id="Warstwa_1"
   x="0px"
   y="0px"
   width="173.2px"
   height="200px"
   viewBox="0 0 173.2 200"
   enable-background="new 0 0 173.2 200"
   xml:space="preserve"
   inkscape:version="0.91 r13725"
   sodipodi:docname="sygnet.svg"><metadata
     id="metadata3882"><rdf:RDF><cc:Work
         rdf:about=""><dc:format>image/svg+xml</dc:format><dc:type
           rdf:resource="http://purl.org/dc/dcmitype/StillImage" /></cc:Work></rdf:RDF></metadata><defs
     id="defs3880" /><sodipodi:namedview
     pagecolor="#ffffff"
     bordercolor="#666666"
     borderopacity="1"
     objecttolerance="10"
     gridtolerance="10"
     guidetolerance="10"
     inkscape:pageopacity="0"
     inkscape:pageshadow="2"
     inkscape:window-width="1213"
     inkscape:window-height="761"
     id="namedview3878"
     showgrid="false"
     inkscape:zoom="1.18"
     inkscape:cx="86.599998"
     inkscape:cy="100"
     inkscape:window-x="0"
     inkscape:window-y="27"
     inkscape:window-maximized="0"
     inkscape:current-layer="Warstwa_1" /><polygon
     fill="#61DAFB"
     points="0,150 0,50 86.6,0 173.2,50 173.2,150 86.6,200 "
     id="polygon3862" /><polygon
     opacity="0.04"
     stroke="#FFFFFF"
     stroke-miterlimit="10"
     enable-background="new    "
     points="0,50 86.6,100 86.6,0 "
     id="polygon3866" /><polygon
     opacity="0.04"
     stroke="#FFFFFF"
     stroke-miterlimit="10"
     enable-background="new    "
     points="0,150 86.6,200 86.6,100 "
     id="polygon3868" /><polygon
     opacity="0.08"
     stroke="#FFFFFF"
     stroke-miterlimit="10"
     enable-background="new    "
     points="86.6,100 173.2,150 173.2,50   "
     id="polygon3870" /><polygon
     fill-opacity="0"
     points="86.6,100 0,50 0,150 "
     id="polygon3872" /><polygon
     stroke-miterlimit="10"
     enable-background="new    "
     points="173.2,150 86.6,100 86.6,200   "
     id="polygon3874"
     stroke="#FFFFFF"
     opacity="0.08" /><polygon
     opacity="0.08"
     stroke="#FFFFFF"
     stroke-miterlimit="10"
     enable-background="new    "
     points="173.2,50 86.6,0 86.6,100 "
     id="polygon3876" /><path
     inkscape:connector-curvature="0"
     d="m 8.0154588,62.910448 c 0,0.2751 5.3561822,8.08802 11.9026162,17.331467 6.546442,9.243454 11.902623,16.946323 11.902623,17.111391 0,0.165058 -6.010822,8.693244 -13.390444,18.982094 l -13.3309328,18.70698 13.6284948,0 13.568983,0 7.439133,-11.11416 c 4.106405,-6.16229 7.67719,-11.16917 7.974758,-11.16917 0.238051,0 3.808836,5.00688 7.855723,11.16917 l 7.379621,11.11416 13.628502,0 c 10.771866,0 13.568974,-0.16506 13.211895,-0.71526 C 89.48887,133.99699 83.597077,125.63387 76.634047,115.84021 69.611505,105.99153 64.017272,97.738447 64.136301,97.408322 64.314841,97.078197 69.551987,89.430344 75.860378,80.351956 82.109249,71.328591 87.405913,63.570695 87.584452,63.185548 87.822502,62.525301 85.680034,62.41526 74.78914,62.41526 l -13.152394,0 -6.665462,11.059127 C 51.340987,79.526652 48.12728,84.313441 47.829711,84.038334 47.532151,83.763228 44.437466,78.866405 40.86668,73.144265 L 34.320246,62.690366 21.167853,62.525301 c -8.093781,-0.05504 -13.1523942,0.05504 -13.1523942,0.385147 z"
     id="path3649"
     style="fill:#ffffff" /><path
     inkscape:connector-curvature="0"
     d="m 95.670181,97.457619 0,36.737291 13.142229,0 13.14225,0 0,-13.63732 0,-13.63733 10.20089,0 c 11.51511,0 16.14619,-0.72361 21.84116,-3.45109 9.01182,-4.286011 13.58032,-13.637318 11.82801,-24.157539 -1.31421,-7.959743 -5.19431,-13.136361 -12.01576,-15.919488 -5.82013,-2.449153 -8.57375,-2.671803 -34.04467,-2.671803 l -24.094109,0 0,36.737279 z M 134.72142,76.361518 c 3.06652,0.779276 5.06915,2.560481 6.07047,5.399267 0.62581,1.948191 0.56323,2.671806 -0.31291,4.786977 -1.68973,3.896383 -4.19301,5.009629 -12.07836,5.232282 l -6.44596,0.222653 0,-8.126733 0,-8.126735 5.19431,0 c 2.8162,0 6.19564,0.278314 7.57245,0.612289 z"
     id="path3633"
     style="fill:#f9f9f9" /></svg>